<svg width="348" height="139" viewBox="0 0 348 139" fill="none" xmlns="http://www.w3.org/2000/svg">
<path fill-rule="evenodd" clip-rule="evenodd" d="M348 25.6C348 16.6392 348 12.1587 346.256 8.73615C344.722 5.72556 342.274 3.27787 339.264 1.7439C335.841 0 331.361 0 322.4 0H25.6C16.6392 0 12.1587 0 8.73615 1.7439C5.72556 3.27787 3.27787 5.72556 1.7439 8.73615C0 12.1587 0 16.6392 0 25.6V113.4C0 122.361 0 126.841 1.7439 130.264C3.27787 133.274 5.72556 135.722 8.73615 137.256C12.1587 139 16.6392 139 25.6 139H278.318C283.682 139 286.363 139 288.922 138.459C291.191 137.979 293.382 137.186 295.433 136.102C297.745 134.879 299.805 133.163 303.925 129.729L337.637 101.636C341.446 98.4613 343.351 96.8742 344.72 94.9286C345.933 93.2048 346.834 91.2812 347.382 89.2457C348 86.9483 348 84.4691 348 79.5108V25.6Z" fill="#01182D"/>
</svg>
