<svg width="650" height="222" viewBox="0 0 650 222" fill="none" xmlns="http://www.w3.org/2000/svg">
<g clip-path="url(#clip0_4028_12172)">
<path fill-rule="evenodd" clip-rule="evenodd" d="M650 38.4C650 24.9587 650 18.2381 647.384 13.1042C645.083 8.58834 641.412 4.9168 636.896 2.61584C631.762 0 625.041 0 611.6 0H38.4C24.9587 0 18.2381 0 13.1042 2.61584C8.58834 4.9168 4.9168 8.58834 2.61584 13.1042C0 18.2381 0 24.9587 0 38.4V184.6C0 198.041 0 204.762 2.61584 209.896C4.9168 214.412 8.58834 218.083 13.1042 220.384C18.2381 223 24.9588 223 38.4001 223H532.972C544.56 223 550.354 223 555.682 221.496C560.402 220.164 564.837 217.975 568.765 215.039C573.199 211.724 576.724 207.125 583.772 197.927L636.8 128.726C641.696 122.337 644.144 119.142 645.883 115.612C647.426 112.479 648.552 109.158 649.233 105.732C650 101.872 650 97.8475 650 89.7983V38.4Z" fill="black"/>
</g>
<defs>
<clipPath id="clip0_4028_12172">
<path d="M0 32C0 20.7989 0 15.1984 2.17987 10.9202C4.09734 7.15695 7.15695 4.09734 10.9202 2.17987C15.1984 0 20.7989 0 32 0H618C629.201 0 634.802 0 639.08 2.17987C642.843 4.09734 645.903 7.15695 647.82 10.9202C650 15.1984 650 20.799 650 32V190C650 201.201 650 206.802 647.82 211.08C645.903 214.843 642.843 217.903 639.08 219.82C634.802 222 629.201 222 618 222H32C20.7989 222 15.1984 222 10.9202 219.82C7.15695 217.903 4.09734 214.843 2.17987 211.08C0 206.802 0 201.201 0 190V32Z" fill="white"/>
</clipPath>
</defs>
</svg>
